<svg width="25" height="32" viewBox="0 0 25 32" fill="none" xmlns="http://www.w3.org/2000/svg">
<path d="M24 12.3707C24.0012 10.4556 23.4913 8.57129 22.5177 6.89277C21.5441 5.21426 20.1383 3.79598 18.4309 2.76967C16.7236 1.74335 14.7701 1.1423 12.7518 1.02232C10.7335 0.902351 8.71588 1.26735 6.88641 2.08343C5.05694 2.89951 3.47493 4.14019 2.28731 5.69023C1.09969 7.24028 0.34499 9.04942 0.0933036 10.9496C-0.158382 12.8498 0.101111 14.7794 0.84768 16.5592C1.59425 18.339 2.80368 19.9112 4.36364 21.1299V30.9662C4.3635 31.1424 4.41095 31.3157 4.50148 31.4696C4.592 31.6235 4.72259 31.7529 4.88084 31.8456C5.03908 31.9383 5.21972 31.9911 5.40558 31.999C5.59144 32.0069 5.77635 31.9696 5.94273 31.8908L12 29.0291L18.0586 31.8972C18.2106 31.9659 18.3771 32.0008 18.5455 31.9993C18.8348 31.9993 19.1123 31.8904 19.3168 31.6967C19.5214 31.5029 19.6364 31.2402 19.6364 30.9662V21.1299C21.0013 20.0654 22.1004 18.7279 22.8548 17.2134C23.6093 15.699 24.0004 14.0452 24 12.3707ZM2.18182 12.3707C2.18182 10.5317 2.75765 8.73412 3.83648 7.20511C4.91532 5.67611 6.44871 4.48439 8.24274 3.78067C10.0368 3.07694 12.0109 2.89281 13.9154 3.25157C15.82 3.61033 17.5694 4.49585 18.9425 5.79616C20.3156 7.09648 21.2507 8.75318 21.6295 10.5568C22.0084 12.3604 21.8139 14.2298 21.0708 15.9288C20.3277 17.6277 19.0693 19.0798 17.4547 20.1015C15.8401 21.1231 13.9419 21.6684 12 21.6684C9.39694 21.6657 6.90133 20.6852 5.06069 18.9422C3.22005 17.1991 2.18471 14.8357 2.18182 12.3707ZM4.36364 12.3707C4.36364 10.9404 4.8115 9.54224 5.6506 8.35302C6.48969 7.16379 7.68233 6.2369 9.07769 5.68956C10.4731 5.14221 12.0085 4.999 13.4898 5.27804C14.9711 5.55707 16.3318 6.24581 17.3997 7.25717C18.4677 8.26852 19.195 9.55707 19.4896 10.9599C19.7843 12.3626 19.6331 13.8167 19.0551 15.1381C18.4771 16.4595 17.4983 17.5889 16.2425 18.3835C14.9867 19.1781 13.5103 19.6023 12 19.6023C9.97537 19.6002 8.03429 18.8377 6.60267 17.4819C5.17104 16.1262 4.3658 14.288 4.36364 12.3707Z" fill="black"/>
<path d="M25 11.3707C25.0012 9.45559 24.4913 7.57129 23.5177 5.89277C22.5441 4.21426 21.1383 2.79598 19.4309 1.76967C17.7236 0.743352 15.7701 0.142296 13.7518 0.0223234C11.7335 -0.0976488 9.71588 0.267355 7.88641 1.08343C6.05694 1.89951 4.47493 3.14019 3.28731 4.69023C2.09969 6.24028 1.34499 8.04942 1.0933 9.9496C0.841618 11.8498 1.10111 13.7794 1.84768 15.5592C2.59425 17.339 3.80368 18.9112 5.36364 20.1299V29.9662C5.3635 30.1424 5.41095 30.3157 5.50148 30.4696C5.592 30.6235 5.72259 30.7529 5.88084 30.8456C6.03908 30.9383 6.21972 30.9911 6.40558 30.999C6.59144 31.0069 6.77635 30.9696 6.94273 30.8908L13 28.0291L19.0586 30.8972C19.2106 30.9659 19.3771 31.0008 19.5455 30.9993C19.8348 30.9993 20.1123 30.8904 20.3168 30.6967C20.5214 30.5029 20.6364 30.2402 20.6364 29.9662V20.1299C22.0013 19.0654 23.1004 17.7279 23.8548 16.2134C24.6093 14.699 25.0004 13.0452 25 11.3707ZM3.18182 11.3707C3.18182 9.53175 3.75765 7.73412 4.83648 6.20511C5.91532 4.67611 7.44871 3.48439 9.24274 2.78067C11.0368 2.07694 13.0109 1.89281 14.9154 2.25157C16.82 2.61033 18.5694 3.49585 19.9425 4.79616C21.3156 6.09648 22.2507 7.75318 22.6295 9.55677C23.0084 11.3604 22.8139 13.2298 22.0708 14.9288C21.3277 16.6277 20.0693 18.0798 18.4547 19.1015C16.8401 20.1231 14.9419 20.6684 13 20.6684C10.3969 20.6657 7.90133 19.6852 6.06069 17.9422C4.22005 16.1991 3.18471 13.8357 3.18182 11.3707ZM5.36364 11.3707C5.36364 9.9404 5.8115 8.54224 6.6506 7.35302C7.48969 6.16379 8.68233 5.2369 10.0777 4.68956C11.4731 4.14221 13.0085 3.999 14.4898 4.27804C15.9711 4.55707 17.3318 5.24581 18.3997 6.25717C19.4677 7.26852 20.195 8.55707 20.4896 9.95986C20.7843 11.3626 20.6331 12.8167 20.0551 14.1381C19.4771 15.4595 18.4983 16.5889 17.2425 17.3835C15.9867 18.1781 14.5103 18.6023 13 18.6023C10.9754 18.6002 9.03429 17.8377 7.60267 16.4819C6.17104 15.1262 5.3658 13.288 5.36364 11.3707Z" fill="#FFDF00"/>
</svg>
