<svg width="24" height="24" viewBox="0 0 24 24" fill="none" xmlns="http://www.w3.org/2000/svg">
<path d="M8.24301 7.34004L1.86301 8.26505L1.75001 8.28804C1.57895 8.33346 1.423 8.42345 1.2981 8.54885C1.1732 8.67424 1.08381 8.83053 1.03907 9.00177C0.994331 9.17301 0.995837 9.35305 1.04344 9.52352C1.09104 9.69398 1.18303 9.84876 1.31001 9.97204L5.93201 14.471L4.84201 20.826L4.82901 20.936C4.81854 21.113 4.85528 21.2895 4.93546 21.4475C5.01564 21.6056 5.13639 21.7395 5.28535 21.8356C5.4343 21.9316 5.6061 21.9863 5.78316 21.9942C5.96022 22.002 6.13617 21.9626 6.29301 21.88L11.999 18.88L17.692 21.88L17.792 21.926C17.9571 21.9911 18.1365 22.011 18.3118 21.9838C18.4871 21.9566 18.652 21.8833 18.7896 21.7713C18.9272 21.6593 19.0326 21.5128 19.0948 21.3467C19.1571 21.1806 19.1741 21.0009 19.144 20.826L18.053 14.471L22.677 9.97104L22.755 9.88604C22.8664 9.74881 22.9395 9.5845 22.9667 9.40984C22.994 9.23518 22.9744 9.05642 22.9101 8.89178C22.8458 8.72713 22.7389 8.58248 22.6005 8.47256C22.4621 8.36264 22.297 8.29138 22.122 8.26604L15.742 7.34004L12.89 1.56004C12.8075 1.39258 12.6797 1.25156 12.5212 1.15295C12.3627 1.05434 12.1797 1.00208 11.993 1.00208C11.8063 1.00208 11.6233 1.05434 11.4648 1.15295C11.3063 1.25156 11.1785 1.39258 11.096 1.56004L8.24301 7.34004Z" fill="#FFDF00"/>
</svg>
